PathFileType	4	(X/Y/Z)	Walk3.trc
DataRate	CameraRate	NumFrames	NumMarkers	Units	OrigDataRate	OrigDataStartFrame	OrigNumFrames
200.000000	200.000000	5	56	mm	200.000000	696	821
Frame#	Times		LWRR		RLFC		RBHD		RTH3		C7		RMFC		RToe		LElbow		RTB2		RMT1		RMT5		RTB3		LMT5		LWRU		LUA1		LCAR		RCAL		LACR1		RMMAL		RFA1		LASI		LLFC		LTH3		LTB2		LPSI		LCAL		LMMAL		LToe		RPSI		RLMAL		LLMAL		RUA1		LTH2		RFHD		RWRU		RBack		LBHD		LTH4		LMFC		LTB1		RCAR		LTH1		LTB3		RTH2		LTB4		LMT1		RElbow		RTH1		RTH4		RTB4		LFHD		RASI		RACR1		RWRR		T10		RTB1
			X1	Y1	Z1	X2	Y2	Z2	X3	Y3	Z3	X4	Y4	Z4	X5	Y5	Z5	X6	Y6	Z6	X7	Y7	Z7	X8	Y8	Z8	X9	Y9	Z9	X10	Y10	Z10	X11	Y11	Z11	X12	Y12	Z12	X13	Y13	Z13	X14	Y14	Z14	X15	Y15	Z15	X16	Y16	Z16	X17	Y17	Z17	X18	Y18	Z18	X19	Y19	Z19	X20	Y20	Z20	X21	Y21	Z21	X22	Y22	Z22	X23	Y23	Z23	X24	Y24	Z24	X25	Y25	Z25	X26	Y26	Z26	X27	Y27	Z27	X28	Y28	Z28	X29	Y29	Z29	X30	Y30	Z30	X31	Y31	Z31	X32	Y32	Z32	X33	Y33	Z33	X34	Y34	Z34	X35	Y35	Z35	X36	Y36	Z36	X37	Y37	Z37	X38	Y38	Z38	X39	Y39	Z39	X40	Y40	Z40	X41	Y41	Z41	X42	Y42	Z42	X43	Y43	Z43	X44	Y44	Z44	X45	Y45	Z45	X46	Y46	Z46	X47	Y47	Z47	X48	Y48	Z48	X49	Y49	Z49	X50	Y50	Z50	X51	Y51	Z51	X52	Y52	Z52	X53	Y53	Z53	X54	Y54	Z54	X55	Y55	Z55	X56	Y56	Z56

696	3.48	119.36	833.37	-252.86	239.18	509.11	146.98	246.18	1608.2	-34.092	241.86	556.47	152.78	221.71	1476.7	35.202	213.61	482.34	21.82	298.48	22.933	99.542	141.04	1114.7	-247.39	203.61	271.1	127.12	244.55	26.422	55.839	198.41	22.772	138.74	178.17	188.82	48.68	637.34	70.148	-124.05	184.4	796.08	-246.34	220.46	1232.6	-216.29	114.24	975.98	-254.45	35.103	37.303	34.217	302.08	1417.2	-141.61	121.36	69.776	18.269	325.69	931.31	319.44	320.62	1029.2	-128.61	376.06	526.62	-123.15	373.06	585.03	-129.09	468.84	331.2	-123.73	129.15	1040.3	-12.458	464.95	33.465	-56.356	533.39	100.36	-31.758	693.97	125.75	-75.522	124.23	1045.1	55.849	90.761	72.156	94.966	511.05	79.734	-110.15	326.56	1245.8	274.2	404.25	693.84	-98.351	422.51	1651	-7.2802	429.36	861.12	256.08	216.98	1367.1	190.6	251.37	1599.1	102.73	349.1	676.24	-143.23	381.62	496.94	6.1087	466.89	423.89	-51.166	433.58	810.59	301.97	323.76	765.71	-152.94	507.9	243.17	-57.883	309.3	654.35	138.19	486.69	333.32	-53.924	665.05	90.929	-46.222	268.9	1083	327.81	245.59	742.3	196.9	246.88	647.73	177.4	212.46	270.46	52.395	424.7	1647.8	67.71	309.61	992.39	178.02	344.8	1424.8	180.97	361.17	817.59	280.42	147.12	1221.5	38	248.36	361.86	60.007
697	3.485	123.12	832.87	-253.09	242.1	508.45	146.82	251.48	1607.2	-34.767	244.98	555.85	152.67	227.06	1476	34.691	216.57	481.82	21.577	298.5	22.869	99.521	145.61	1114.2	-247.67	205.16	270.61	126.94	244.59	26.428	55.756	198.37	22.767	138.71	179.15	188.47	48.536	650.26	73.204	-123.98	188.04	795.35	-246.58	225.39	1231.8	-216.65	118.42	975.49	-254.68	35.22	37.643	34.136	307.49	1416.2	-142.08	121.58	69.836	18.168	331.2	930.8	319.42	325.89	1028	-128.56	379.24	525.12	-123.28	375.39	582.87	-129.69	476.19	331.52	-123.86	134.19	1039.6	-13.184	478.41	33.639	-56.294	545.73	101.9	-31.709	705.97	129.7	-75.333	129.15	1044.4	55.097	90.974	72.374	94.839	523.76	80.818	-110.03	331.94	1245.1	273.91	407.57	691.46	-99.144	427.78	1650.2	-7.9803	434.92	860.75	255.96	222.31	1366.5	190.16	256.66	1598.3	102.06	351.97	674.26	-143.62	385.17	495.37	5.8724	472.52	424.26	-51.412	439.26	810.22	301.88	327.23	763.9	-153.27	517.28	244.28	-58.013	312.9	653.41	138.11	494.24	334.05	-54.119	677.56	94.707	-45.857	274.24	1082.5	327.81	249.44	741.64	196.71	250.36	647.07	177.27	213.91	269.98	52.088	429.97	1647.1	67.011	314.06	991.5	178.57	350.15	1424.1	180.49	366.81	817.11	280.41	152.26	1220.8	37.416	250.47	361.06	59.865
698	3.49	126.99	832.35	-253.34	245.04	507.78	146.66	256.8	1606.3	-35.465	248.12	555.23	152.56	232.41	1475.2	34.153	219.54	481.31	21.325	298.53	22.797	99.491	150.24	1113.6	-247.98	206.72	270.12	126.77	244.64	26.454	55.688	198.33	22.757	138.69	180.13	188.13	48.412	662.42	76.115	-123.88	191.79	794.62	-246.83	230.36	1231.1	-217.04	122.68	974.97	-254.94	35.334	38.006	34.071	312.9	1415.2	-142.58	121.78	69.917	18.079	336.67	930.26	319.36	331.16	1026.9	-128.53	382.67	523.74	-123.42	377.91	580.79	-130.29	483.39	331.8	-123.97	139.26	1038.9	-13.903	491.12	33.865	-56.148	557.4	103.41	-31.593	717.31	133.44	-75.129	134.1	1043.7	54.356	91.191	72.614	94.737	535.76	81.888	-109.83	337.31	1244.5	273.59	410.98	689.19	-99.961	433.07	1649.5	-8.6911	440.44	860.32	255.85	227.63	1365.8	189.7	261.97	1597.5	101.38	354.95	672.33	-144.03	388.87	493.91	5.6168	478.13	424.57	-51.633	444.89	809.82	301.78	330.72	762.1	-153.65	526.29	245.33	-58.089	316.52	652.47	138.03	501.59	334.73	-54.271	689.36	98.331	-45.486	279.57	1081.9	327.76	253.34	740.99	196.51	253.87	646.43	177.15	215.37	269.51	51.799	435.25	1646.4	66.299	318.53	990.64	179.08	355.5	1423.3	179.99	372.41	816.59	280.39	157.43	1220.2	36.803	252.57	360.27	59.716
699	3.495	130.95	831.81	-253.62	247.99	507.12	146.5	262.12	1605.4	-36.185	251.27	554.62	152.45	237.77	1474.4	33.586	222.49	480.8	21.065	298.54	22.718	99.453	154.92	1113	-248.32	208.27	269.65	126.61	244.68	26.502	55.638	198.3	22.741	138.68	181.11	187.8	48.309	673.81	78.806	-123.74	195.65	793.88	-247.11	235.36	1230.3	-217.46	127.02	974.43	-255.23	35.443	38.395	34.023	318.33	1414.3	-143.11	121.98	70.022	18.004	342.11	929.71	319.28	336.45	1025.8	-128.52	386.4	522.48	-123.56	380.67	578.82	-130.89	490.44	332.02	-124.05	144.35	1038.1	-14.61	503.04	34.107	-55.895	568.39	104.83	-31.407	727.95	136.9	-74.942	139.09	1043	53.634	91.413	72.877	94.662	547.03	82.893	-109.56	342.67	1243.8	273.24	414.5	687.08	-100.78	438.36	1648.7	-9.4129	445.92	859.86	255.74	232.94	1365.2	189.2	267.28	1596.7	100.67	358.08	670.48	-144.48	392.77	492.59	5.352	483.75	424.81	-51.836	450.46	809.37	301.69	334.25	760.36	-154.07	534.91	246.28	-58.112	320.16	651.52	137.94	508.74	335.33	-54.383	700.42	101.73	-45.128	284.89	1081.3	327.65	257.27	740.34	196.29	257.41	645.78	177.01	216.83	269.05	51.531	440.53	1645.7	65.576	323.02	989.82	179.53	360.84	1422.6	179.46	377.96	816.05	280.36	162.62	1219.5	36.168	254.67	359.5	59.555
700	3.5	135.02	831.25	-253.92	250.94	506.47	146.34	267.46	1604.5	-36.927	254.43	554.01	152.33	243.13	1473.7	32.991	225.44	480.3	20.796	298.55	22.633	99.411	159.67	1112.4	-248.69	209.83	269.2	126.47	244.72	26.569	55.604	198.27	22.719	138.66	182.08	187.48	48.224	684.39	81.211	-123.59	199.62	793.14	-247.4	240.39	1229.6	-217.91	131.44	973.88	-255.56	35.546	38.811	33.995	323.77	1413.3	-143.66	122.18	70.153	17.944	347.52	929.13	319.17	341.75	1024.7	-128.53	390.46	521.34	-123.69	383.76	577.01	-131.48	497.31	332.17	-124.1	149.46	1037.4	-15.301	514.16	34.329	-55.519	578.68	106.12	-31.153	737.88	140.01	-74.8	144.13	1042.3	52.932	91.639	73.163	94.613	557.53	83.783	-109.2	348.01	1243.1	272.86	418.15	685.17	-101.58	443.67	1647.9	-10.146	451.36	859.35	255.63	238.25	1364.5	188.66	272.59	1595.9	99.936	361.42	668.76	-144.95	396.91	491.41	5.0929	489.38	424.98	-52.024	455.97	808.88	301.61	337.87	758.71	-154.54	543.14	247.11	-58.084	323.82	650.56	137.84	515.69	335.84	-54.459	710.72	104.82	-44.801	290.2	1080.7	327.48	261.24	739.69	196.06	260.97	645.15	176.86	218.28	268.6	51.284	445.83	1645.1	64.841	327.55	989.03	179.9	366.19	1421.8	178.92	383.45	815.49	280.31	167.83	1218.8	35.513	256.75	358.73	59.376
